0
SECTION
2
HEADER
9
$INSUNITS
70
4
9
$ACADVER
1
AC1014
9
$HANDSEED
5
FFFF
0
ENDSEC
0
SECTION
2
TABLES
0
TABLE
2
VPORT
5
8
100
AcDbSymbolTable
0
ENDTAB
0
TABLE
2
LTYPE
5
5
100
AcDbSymbolTable
0
LTYPE
5
14
100
AcDbSymbolTableRecord
100
AcDbLinetypeTableRecord
2
BYBLOCK
70
0
0
LTYPE
5
15
100
AcDbSymbolTableRecord
100
AcDbLinetypeTableRecord
2
BYLAYER
70
0
0
ENDTAB
0
TABLE
2
LAYER
5
2
100
AcDbSymbolTable
70
2
0
LAYER
5
50
100
AcDbSymbolTableRecord
100
AcDbLayerTableRecord
2
0
70
0
6
CONTINUOUS
0
ENDTAB
0
TABLE
2
STYLE
5
3
100
AcDbSymbolTable
70
1
0
STYLE
5
11
100
AcDbSymbolTableRecord
100
AcDbTextStyleTableRecord
2
STANDARD
70
0
0
ENDTAB
0
TABLE
2
VIEW
5
6
100
AcDbSymbolTable
70
0
0
ENDTAB
0
TABLE
2
UCS
5
7
100
AcDbSymbolTable
70
0
0
ENDTAB
0
TABLE
2
APPID
5
9
100
AcDbSymbolTable
70
2
0
APPID
5
12
100
AcDbSymbolTableRecord
100
AcDbRegAppTableRecord
2
ACAD
70
0
0
ENDTAB
0
TABLE
2
DIMSTYLE
5
A
100
AcDbSymbolTable
70
1
0
ENDTAB
0
TABLE
2
BLOCK_RECORD
5
1
100
AcDbSymbolTable
70
1
0
BLOCK_RECORD
5
1F
100
AcDbSymbolTableRecord
100
AcDbBlockTableRecord
2
*MODEL_SPACE
0
BLOCK_RECORD
5
1B
100
AcDbSymbolTableRecord
100
AcDbBlockTableRecord
2
*PAPER_SPACE
0
ENDTAB
0
ENDSEC
0
SECTION
2
BLOCKS
0
BLOCK
5
20
100
AcDbEntity
100
AcDbBlockBegin
2
*MODEL_SPACE
0
ENDBLK
5
21
100
AcDbEntity
100
AcDbBlockEnd
0
BLOCK
5
1C
100
AcDbEntity
100
AcDbBlockBegin
2
*PAPER_SPACE
0
ENDBLK
5
1D
100
AcDbEntity
100
AcDbBlockEnd
0
ENDSEC
0
SECTION
2
ENTITIES
0
LWPOLYLINE
5
100
100
AcDbEntity
8
0
100
AcDbPolyline
90
60
70
1
43
0.0
10
-114.0181056232812
20
-138.60097070293807
10
-113.38447295944491
20
-138.68703391167517
10
-113.80104571372678
20
-139.22762286453315
42
0.019467104786240464
10
-113.6978936001595
20
-139.42076844306297
10
-113.06867813219036
20
-139.30681615722918
10
-113.29781119125668
20
-139.94967486394859
42
0.019467104786232967
10
-113.14002243532482
20
-140.10149146890501
10
-112.57681615722956
20
-139.79867813218999
10
-112.59608038079504
20
-140.48087910349716
42
0.019467104786226184
10
-112.39910044530805
20
-140.57650586781855
10
-111.95703391167557
20
-140.11447295944456
10
-111.76454358331586
20
-140.7692376110943
42
0.019467104786211904
10
-111.54765423679919
20
-140.79931392081804
10
-111.27000000000002
20
-140.22328844102927
10
-110.884597414214
20
-140.78652384690454
42
0.019467104786200836
10
-110.66902929706158
20
-140.74810562328085
10
-110.58296608832448
20
-140.11447295944458
10
-110.04237713546655
20
-140.53104571372646
42
0.019467104786186202
10
-109.8492315569367
20
-140.42789360015917
10
-109.96318384277052
20
-139.79867813219005
10
-109.3203251360511
20
-140.02781119125635
42
0.01946710478617442
10
-109.16850853109466
20
-139.87002243532447
10
-109.47132186780969
20
-139.30681615722921
10
-108.78912089650251
20
-139.32608038079471
42
0.019467104786166207
10
-108.69349413218112
20
-139.12910044530773
10
-109.15552704055511
20
-138.68703391167523
10
-108.50076238890537
20
-138.49454358331553
42
0.019467104786161211
10
-108.47068607918163
20
-138.27765423679884
10
-109.0467115589704
20
-137.99999999999969
10
-108.48347615309514
20
-137.61459741421365
42
0.019467104786159071
10
-108.52189437671882
20
-137.39902929706122
10
-109.15552704055511
20
-137.31296608832417
10
-108.73895428627323
20
-136.77237713546623
42
0.019467104786161211
10
-108.84210639984053
20
-136.57923155693635
10
-109.47132186780965
20
-136.69318384277017
10
-109.24218880874334
20
-136.05032513605076
42
0.019467104786167283
10
-109.39997756467523
20
-135.89850853109431
10
-109.96318384277046
20
-136.20132186780936
10
-109.94391961920499
20
-135.51912089650219
42
0.019467104786176564
10
-110.14089955469197
20
-135.42349413218076
10
-110.58296608832444
20
-135.88552704055479
10
-110.77545641668416
20
-135.23076238890505
42
0.019467104786187631
10
-110.99234576320086
20
-135.20068607918131
10
-111.26999999999998
20
-135.77671155897005
10
-111.65540258578604
20
-135.21347615309483
42
0.019467104786200479
10
-111.87097070293845
20
-135.2518943767185
10
-111.95703391167552
20
-135.88552704055476
10
-112.49762286453347
20
-135.46895428627292
42
0.019467104786213333
10
-112.69076844306333
20
-135.57210639984018
10
-112.57681615722952
20
-136.20132186780933
10
-113.21967486394891
20
-135.972188808743
42
0.019467104786226541
10
-113.37149146890538
20
-136.1299775646749
10
-113.06867813219031
20
-136.69318384277014
10
-113.7508791034975
20
-136.67391961920467
42
0.019467104786235465
10
-113.84650586781891
20
-136.87089955469165
10
-113.38447295944489
20
-137.31296608832415
10
-114.03923761109462
20
-137.50545641668384
42
0.019467104786241179
10
-114.06931392081837
20
-137.72234576320051
10
-113.49328844102959
20
-137.99999999999966
10
-114.05652384690485
20
-138.38540258578573
42
0.019467104786239035
0
LWPOLYLINE
5
101
100
AcDbEntity
8
0
100
AcDbPolyline
90
52
70
1
43
0.0
10
-81.269999999999953
20
-70.999999999999673
10
-61.269999999999946
20
-70.999999999999673
10
-61.269999999999946
20
-67.999999999999673
10
-44.26999999999996
20
-67.999999999999687
10
-44.26999999999996
20
-87.999999999999687
10
-41.26999999999996
20
-87.999999999999687
10
-41.26999999999996
20
-107.99999999999969
10
-44.26999999999996
20
-107.99999999999969
10
-44.26999999999996
20
-127.99999999999969
10
-41.26999999999996
20
-127.99999999999969
10
-41.26999999999996
20
-147.99999999999969
10
-44.26999999999996
20
-147.99999999999969
10
-44.26999999999996
20
-167.99999999999969
10
-41.26999999999996
20
-167.99999999999969
10
-41.26999999999996
20
-187.99999999999969
10
-44.26999999999996
20
-187.99999999999969
10
-44.26999999999996
20
-207.99999999999969
10
-61.269999999999946
20
-207.99999999999969
10
-61.269999999999953
20
-204.99999999999969
10
-81.269999999999953
20
-204.99999999999969
10
-81.269999999999953
20
-207.99999999999969
10
-101.26999999999995
20
-207.99999999999969
10
-101.26999999999995
20
-204.99999999999969
10
-121.26999999999995
20
-204.99999999999969
10
-121.26999999999995
20
-207.99999999999969
10
-141.26999999999995
20
-207.99999999999969
10
-141.26999999999995
20
-204.99999999999969
10
-161.26999999999995
20
-204.99999999999969
10
-161.26999999999995
20
-207.99999999999969
10
-178.26999999999998
20
-207.99999999999969
10
-178.26999999999998
20
-187.99999999999969
10
-181.26999999999995
20
-187.99999999999969
10
-181.26999999999995
20
-167.99999999999969
10
-178.26999999999998
20
-167.99999999999969
10
-178.26999999999998
20
-147.99999999999966
10
-181.26999999999995
20
-147.99999999999966
10
-181.26999999999995
20
-127.99999999999967
10
-178.26999999999998
20
-127.99999999999967
10
-178.26999999999998
20
-107.99999999999967
10
-181.26999999999995
20
-107.99999999999967
10
-181.26999999999995
20
-87.999999999999673
10
-178.26999999999998
20
-87.999999999999673
10
-178.26999999999998
20
-67.999999999999673
10
-161.26999999999995
20
-67.999999999999673
10
-161.26999999999995
20
-70.999999999999673
10
-141.26999999999995
20
-70.999999999999673
10
-141.26999999999995
20
-67.999999999999673
10
-121.26999999999995
20
-67.999999999999673
10
-121.26999999999995
20
-70.999999999999673
10
-101.26999999999995
20
-70.999999999999673
10
-101.26999999999995
20
-67.999999999999673
10
-81.269999999999953
20
-67.999999999999673
0
ENDSEC
0
SECTION
2
OBJECTS
0
DICTIONARY
5
C
100
AcDbDictionary
3
ACAD_GROUP
350
D
3
ACAD_MLINESTYLE
350
17
0
DICTIONARY
5
D
100
AcDbDictionary
0
DICTIONARY
5
1A
330
C
100
AcDbDictionary
0
DICTIONARY
5
17
100
AcDbDictionary
0
ENDSEC
0
EOF
