0
SECTION
2
HEADER
9
$INSUNITS
70
4
9
$ACADVER
1
AC1014
9
$HANDSEED
5
FFFF
0
ENDSEC
0
SECTION
2
TABLES
0
TABLE
2
VPORT
5
8
100
AcDbSymbolTable
0
ENDTAB
0
TABLE
2
LTYPE
5
5
100
AcDbSymbolTable
0
LTYPE
5
14
100
AcDbSymbolTableRecord
100
AcDbLinetypeTableRecord
2
BYBLOCK
70
0
0
LTYPE
5
15
100
AcDbSymbolTableRecord
100
AcDbLinetypeTableRecord
2
BYLAYER
70
0
0
ENDTAB
0
TABLE
2
LAYER
5
2
100
AcDbSymbolTable
70
2
0
LAYER
5
50
100
AcDbSymbolTableRecord
100
AcDbLayerTableRecord
2
0
70
0
6
CONTINUOUS
0
ENDTAB
0
TABLE
2
STYLE
5
3
100
AcDbSymbolTable
70
1
0
STYLE
5
11
100
AcDbSymbolTableRecord
100
AcDbTextStyleTableRecord
2
STANDARD
70
0
0
ENDTAB
0
TABLE
2
VIEW
5
6
100
AcDbSymbolTable
70
0
0
ENDTAB
0
TABLE
2
UCS
5
7
100
AcDbSymbolTable
70
0
0
ENDTAB
0
TABLE
2
APPID
5
9
100
AcDbSymbolTable
70
2
0
APPID
5
12
100
AcDbSymbolTableRecord
100
AcDbRegAppTableRecord
2
ACAD
70
0
0
ENDTAB
0
TABLE
2
DIMSTYLE
5
A
100
AcDbSymbolTable
70
1
0
ENDTAB
0
TABLE
2
BLOCK_RECORD
5
1
100
AcDbSymbolTable
70
1
0
BLOCK_RECORD
5
1F
100
AcDbSymbolTableRecord
100
AcDbBlockTableRecord
2
*MODEL_SPACE
0
BLOCK_RECORD
5
1B
100
AcDbSymbolTableRecord
100
AcDbBlockTableRecord
2
*PAPER_SPACE
0
ENDTAB
0
ENDSEC
0
SECTION
2
BLOCKS
0
BLOCK
5
20
100
AcDbEntity
100
AcDbBlockBegin
2
*MODEL_SPACE
0
ENDBLK
5
21
100
AcDbEntity
100
AcDbBlockEnd
0
BLOCK
5
1C
100
AcDbEntity
100
AcDbBlockBegin
2
*PAPER_SPACE
0
ENDBLK
5
1D
100
AcDbEntity
100
AcDbBlockEnd
0
ENDSEC
0
SECTION
2
ENTITIES
0
LWPOLYLINE
5
100
100
AcDbEntity
8
0
100
AcDbPolyline
90
4
70
1
43
0.0
10
147.90599999999966
20
125.07366798666143
10
128.09399999999968
20
125.07366798666143
10
128.09399999999968
20
85.195667986661448
10
147.90599999999966
20
85.195667986661448
0
LWPOLYLINE
5
101
100
AcDbEntity
8
0
100
AcDbPolyline
90
32
70
1
43
0.0
10
70.999999999999673
20
15.421667986661447
10
70.999999999999673
20
25.421667986661447
10
67.999999999999673
20
25.421667986661447
10
67.999999999999673
20
35.421667986661447
10
70.999999999999673
20
35.421667986661447
10
70.999999999999673
20
45.421667986661447
10
67.999999999999673
20
45.421667986661447
10
67.999999999999673
20
55.421667986661447
10
70.999999999999673
20
55.421667986661447
10
70.999999999999673
20
65.421667986661447
10
67.999999999999673
20
65.421667986661447
10
118.18405605307875
20
130.6639895123507
42
-0.5320478612966989
10
159.56896791131044
20
128.06206446940075
10
207.99999999999969
20
45.421667986661447
10
204.99999999999969
20
45.421667986661447
10
204.99999999999969
20
35.421667986661447
10
207.99999999999969
20
35.421667986661447
10
207.99999999999969
20
25.421667986661447
10
204.99999999999969
20
25.421667986661447
10
204.99999999999969
20
15.421667986661447
10
187.99999999999969
20
15.421667986661447
10
187.99999999999969
20
18.421667986661447
10
167.99999999999969
20
18.421667986661447
10
167.99999999999969
20
15.421667986661447
10
147.99999999999966
20
15.421667986661449
10
147.99999999999966
20
18.421667986661447
10
127.99999999999967
20
18.421667986661447
10
127.99999999999967
20
15.421667986661447
10
107.99999999999967
20
15.421667986661449
10
107.99999999999967
20
18.421667986661447
10
87.999999999999673
20
18.421667986661447
10
87.999999999999673
20
15.421667986661449
0
ENDSEC
0
SECTION
2
OBJECTS
0
DICTIONARY
5
C
100
AcDbDictionary
3
ACAD_GROUP
350
D
3
ACAD_MLINESTYLE
350
17
0
DICTIONARY
5
D
100
AcDbDictionary
0
DICTIONARY
5
1A
330
C
100
AcDbDictionary
0
DICTIONARY
5
17
100
AcDbDictionary
0
ENDSEC
0
EOF
