0
SECTION
2
HEADER
9
$INSUNITS
70
4
9
$ACADVER
1
AC1014
9
$HANDSEED
5
FFFF
0
ENDSEC
0
SECTION
2
TABLES
0
TABLE
2
VPORT
5
8
100
AcDbSymbolTable
0
ENDTAB
0
TABLE
2
LTYPE
5
5
100
AcDbSymbolTable
0
LTYPE
5
14
100
AcDbSymbolTableRecord
100
AcDbLinetypeTableRecord
2
BYBLOCK
70
0
0
LTYPE
5
15
100
AcDbSymbolTableRecord
100
AcDbLinetypeTableRecord
2
BYLAYER
70
0
0
ENDTAB
0
TABLE
2
LAYER
5
2
100
AcDbSymbolTable
70
2
0
LAYER
5
50
100
AcDbSymbolTableRecord
100
AcDbLayerTableRecord
2
0
70
0
6
CONTINUOUS
0
ENDTAB
0
TABLE
2
STYLE
5
3
100
AcDbSymbolTable
70
1
0
STYLE
5
11
100
AcDbSymbolTableRecord
100
AcDbTextStyleTableRecord
2
STANDARD
70
0
0
ENDTAB
0
TABLE
2
VIEW
5
6
100
AcDbSymbolTable
70
0
0
ENDTAB
0
TABLE
2
UCS
5
7
100
AcDbSymbolTable
70
0
0
ENDTAB
0
TABLE
2
APPID
5
9
100
AcDbSymbolTable
70
2
0
APPID
5
12
100
AcDbSymbolTableRecord
100
AcDbRegAppTableRecord
2
ACAD
70
0
0
ENDTAB
0
TABLE
2
DIMSTYLE
5
A
100
AcDbSymbolTable
70
1
0
ENDTAB
0
TABLE
2
BLOCK_RECORD
5
1
100
AcDbSymbolTable
70
1
0
BLOCK_RECORD
5
1F
100
AcDbSymbolTableRecord
100
AcDbBlockTableRecord
2
*MODEL_SPACE
0
BLOCK_RECORD
5
1B
100
AcDbSymbolTableRecord
100
AcDbBlockTableRecord
2
*PAPER_SPACE
0
ENDTAB
0
ENDSEC
0
SECTION
2
BLOCKS
0
BLOCK
5
20
100
AcDbEntity
100
AcDbBlockBegin
2
*MODEL_SPACE
0
ENDBLK
5
21
100
AcDbEntity
100
AcDbBlockEnd
0
BLOCK
5
1C
100
AcDbEntity
100
AcDbBlockBegin
2
*PAPER_SPACE
0
ENDBLK
5
1D
100
AcDbEntity
100
AcDbBlockEnd
0
ENDSEC
0
SECTION
2
ENTITIES
0
LINE
5
100
100
AcDbEntity
8
0
100
AcDbLine
10
161.27025000000114
20
-192.00000000000006
30
0
11
158.27025000000111
21
-192.00000000000006
31
0
0
LINE
5
101
100
AcDbEntity
8
0
100
AcDbLine
10
158.27025000000111
20
-192.00000000000006
30
0
11
158.27025000000114
21
-156.00000000000006
31
0
0
LINE
5
102
100
AcDbEntity
8
0
100
AcDbLine
10
158.27025000000114
20
-156.00000000000006
30
0
11
161.27025000000117
21
-156.00000000000006
31
0
0
LINE
5
103
100
AcDbEntity
8
0
100
AcDbLine
10
161.27025000000117
20
-156.00000000000006
30
0
11
161.27025000000114
21
-120.00000000000007
31
0
0
LINE
5
104
100
AcDbEntity
8
0
100
AcDbLine
10
161.27025000000114
20
-120.00000000000007
30
0
11
158.27025000000111
21
-120.00000000000007
31
0
0
LINE
5
105
100
AcDbEntity
8
0
100
AcDbLine
10
158.27025000000111
20
-120.00000000000007
30
0
11
158.27025000000114
21
-84.000000000000071
31
0
0
LINE
5
106
100
AcDbEntity
8
0
100
AcDbLine
10
158.27025000000114
20
-84.000000000000071
30
0
11
161.27025000000117
21
-84.000000000000071
31
0
0
LINE
5
107
100
AcDbEntity
8
0
100
AcDbLine
10
161.27025000000117
20
-84.000000000000071
30
0
11
161.27025000000117
21
-48.000000000000078
31
0
0
LINE
5
108
100
AcDbEntity
8
0
100
AcDbLine
10
161.27025000000117
20
-48.000000000000078
30
0
11
61.270250000001155
21
-48.000000000000078
31
0
0
LINE
5
109
100
AcDbEntity
8
0
100
AcDbLine
10
61.27025000000117
20
-228.00000000000009
30
0
11
161.27025000000117
21
-228.00000000000009
31
0
0
LINE
5
110
100
AcDbEntity
8
0
100
AcDbLine
10
161.27025000000117
20
-228.00000000000009
30
0
11
161.27025000000114
21
-192.00000000000006
31
0
0
CIRCLE
5
111
100
AcDbEntity
8
0
100
AcDbCircle
10
141.27025000000117
20
-198.00000000000006
30
0
40
1.5000000000000036
210
-0
220
0
230
1
0
CIRCLE
5
112
100
AcDbEntity
8
0
100
AcDbCircle
10
81.27025000000117
20
-78.000000000000028
30
0
40
1.5000000000000036
210
-0
220
0
230
1
0
CIRCLE
5
113
100
AcDbEntity
8
0
100
AcDbCircle
10
141.27025000000117
20
-78.000000000000028
30
0
40
1.5000000000000036
210
-0
220
0
230
1
0
CIRCLE
5
114
100
AcDbEntity
8
0
100
AcDbCircle
10
81.27025000000117
20
-198.00000000000006
30
0
40
1.5000000000000036
210
-0
220
0
230
1
0
LWPOLYLINE
5
115
100
AcDbEntity
8
0
100
AcDbPolyline
90
4
70
1
43
0.0
10
94.449997531250105
20
-98.999997787177563
10
94.449997531250105
20
-118.99999778717756
10
97.449997531250119
20
-118.99999778717756
10
97.449997531250119
20
-98.999997787177563
0
LWPOLYLINE
5
116
100
AcDbEntity
8
0
100
AcDbPolyline
90
4
70
1
43
0.0
10
94.449997531250105
20
-182.99999778717759
10
97.449997531250119
20
-182.99999778717759
10
97.449997531250119
20
-161.99999778717762
10
94.449997531250105
20
-161.99999778717762
0
LWPOLYLINE
5
117
100
AcDbEntity
8
0
100
AcDbPolyline
90
4
70
1
43
0.0
10
126.44999753125013
20
-98.999997787177563
10
123.44999753125012
20
-98.999997787177563
10
123.44999753125012
20
-118.99999778717756
10
126.44999753125013
20
-118.99999778717756
0
LWPOLYLINE
5
118
100
AcDbEntity
8
0
100
AcDbPolyline
90
4
70
1
43
0.0
10
123.44999753125012
20
-182.99999778717759
10
126.44999753125013
20
-182.99999778717759
10
126.44999753125013
20
-161.99999778717762
10
123.44999753125012
20
-161.99999778717762
0
LWPOLYLINE
5
119
100
AcDbEntity
8
0
100
AcDbPolyline
90
4
70
1
43
0.0
10
94.67698020930905
20
-214.4724813444829
10
97.676980209309065
20
-214.4724813444829
10
97.676980209309065
20
-203.47248134448293
10
94.67698020930905
20
-203.47248134448293
0
LINE
5
120
100
AcDbEntity
8
0
100
AcDbLine
10
61.270250000001155
20
-48.000000000000078
30
0
11
61.270250000001155
21
-84.00000125169754
31
0
0
LINE
5
121
100
AcDbEntity
8
0
100
AcDbLine
10
61.270250000001155
20
-84.00000125169754
30
0
11
64.270250000001155
21
-84.00000125169754
31
0
0
LINE
5
122
100
AcDbEntity
8
0
100
AcDbLine
10
64.270250000001155
20
-84.00000125169754
30
0
11
64.270250000001155
21
-120.00000178813934
31
0
0
LINE
5
123
100
AcDbEntity
8
0
100
AcDbLine
10
64.270250000001155
20
-120.00000178813934
30
0
11
61.270250000001155
21
-120.00000178813934
31
0
0
LINE
5
124
100
AcDbEntity
8
0
100
AcDbLine
10
61.270250000001155
20
-120.00000178813934
30
0
11
61.270250000001155
21
-156.00000232458115
31
0
0
LINE
5
125
100
AcDbEntity
8
0
100
AcDbLine
10
61.270250000001155
20
-156.00000232458115
30
0
11
64.270250000001155
21
-156.00000232458115
31
0
0
LINE
5
126
100
AcDbEntity
8
0
100
AcDbLine
10
64.270250000001155
20
-156.00000232458115
30
0
11
64.270250000001155
21
-192.00000286102295
31
0
0
LINE
5
127
100
AcDbEntity
8
0
100
AcDbLine
10
64.270250000001155
20
-192.00000286102295
30
0
11
61.270250000001155
21
-192.00000286102295
31
0
0
LINE
5
128
100
AcDbEntity
8
0
100
AcDbLine
10
61.270250000001155
20
-192.00000286102295
30
0
11
61.27025000000117
21
-228.00000000000009
31
0
0
ENDSEC
0
SECTION
2
OBJECTS
0
DICTIONARY
5
C
100
AcDbDictionary
3
ACAD_GROUP
350
D
3
ACAD_MLINESTYLE
350
17
0
DICTIONARY
5
D
100
AcDbDictionary
0
DICTIONARY
5
1A
330
C
100
AcDbDictionary
0
DICTIONARY
5
17
100
AcDbDictionary
0
ENDSEC
0
EOF
